<mxfile host="app.diagrams.net" modified="2022-09-06T07:49:45.392Z" agent="5.0 (Windows NT 10.0; Win64; x64) AppleWebKit/537.36 (KHTML, like Gecko) Chrome/105.0.0.0 Safari/537.36" etag="q6060SVOyOolC83js4v3" version="20.2.8" type="github" pages="8">
  <diagram id="_YWwJM0RrEyrWYQMHb4k" name="Page-1">
    <mxGraphModel dx="509" dy="608" grid="1" gridSize="10" guides="1" tooltips="1" connect="1" arrows="1" fold="1" page="1" pageScale="1" pageWidth="827" pageHeight="1169" math="0" shadow="0">
      <root>
        <mxCell id="0" />
        <mxCell id="1" parent="0" />
        <mxCell id="_2lH2XN0jHrMhrN36Nj_-3" value="" style="edgeStyle=orthogonalEdgeStyle;rounded=0;orthogonalLoop=1;jettySize=auto;html=1;fontFamily=Garamond;fontStyle=1" parent="1" source="_2lH2XN0jHrMhrN36Nj_-1" target="_2lH2XN0jHrMhrN36Nj_-2" edge="1">
          <mxGeometry relative="1" as="geometry" />
        </mxCell>
        <mxCell id="_2lH2XN0jHrMhrN36Nj_-1" value="Start" style="strokeWidth=2;html=1;shape=mxgraph.flowchart.terminator;whiteSpace=wrap;fontFamily=Garamond;fontStyle=1" parent="1" vertex="1">
          <mxGeometry x="364" y="60" width="100" height="60" as="geometry" />
        </mxCell>
        <mxCell id="_2lH2XN0jHrMhrN36Nj_-5" value="" style="edgeStyle=orthogonalEdgeStyle;rounded=0;orthogonalLoop=1;jettySize=auto;html=1;fontFamily=Garamond;fontStyle=1" parent="1" source="_2lH2XN0jHrMhrN36Nj_-2" target="_2lH2XN0jHrMhrN36Nj_-4" edge="1">
          <mxGeometry relative="1" as="geometry" />
        </mxCell>
        <mxCell id="_2lH2XN0jHrMhrN36Nj_-2" value="Input Length" style="shape=parallelogram;perimeter=parallelogramPerimeter;whiteSpace=wrap;html=1;fixedSize=1;strokeWidth=2;fontFamily=Garamond;fontStyle=1" parent="1" vertex="1">
          <mxGeometry x="299" y="150" width="230" height="40" as="geometry" />
        </mxCell>
        <mxCell id="_2lH2XN0jHrMhrN36Nj_-7" value="" style="edgeStyle=orthogonalEdgeStyle;rounded=0;orthogonalLoop=1;jettySize=auto;html=1;fontFamily=Garamond;fontStyle=1" parent="1" source="_2lH2XN0jHrMhrN36Nj_-4" target="_2lH2XN0jHrMhrN36Nj_-6" edge="1">
          <mxGeometry relative="1" as="geometry" />
        </mxCell>
        <mxCell id="_2lH2XN0jHrMhrN36Nj_-4" value="A=L*W" style="rounded=1;whiteSpace=wrap;html=1;strokeWidth=2;fontFamily=Garamond;fontStyle=1" parent="1" vertex="1">
          <mxGeometry x="270" y="220" width="290" height="40" as="geometry" />
        </mxCell>
        <mxCell id="_2lH2XN0jHrMhrN36Nj_-10" value="" style="edgeStyle=orthogonalEdgeStyle;rounded=0;orthogonalLoop=1;jettySize=auto;html=1;fontFamily=Garamond;fontStyle=1" parent="1" source="_2lH2XN0jHrMhrN36Nj_-6" edge="1">
          <mxGeometry relative="1" as="geometry">
            <mxPoint x="415" y="400" as="targetPoint" />
          </mxGeometry>
        </mxCell>
        <mxCell id="_2lH2XN0jHrMhrN36Nj_-6" value="Print Area" style="whiteSpace=wrap;html=1;rounded=1;strokeWidth=2;fontFamily=Garamond;fontStyle=1" parent="1" vertex="1">
          <mxGeometry x="320" y="280" width="190" height="40" as="geometry" />
        </mxCell>
        <mxCell id="_2lH2XN0jHrMhrN36Nj_-11" value="End" style="strokeWidth=2;html=1;shape=mxgraph.flowchart.terminator;whiteSpace=wrap;fontFamily=Garamond;fontStyle=1" parent="1" vertex="1">
          <mxGeometry x="365" y="400" width="100" height="60" as="geometry" />
        </mxCell>
      </root>
    </mxGraphModel>
  </diagram>
  <diagram id="QJUMdFrF_rP9S18VubEF" name="Page-2">
    <mxGraphModel dx="509" dy="608" grid="1" gridSize="10" guides="1" tooltips="1" connect="1" arrows="1" fold="1" page="1" pageScale="1" pageWidth="827" pageHeight="1169" math="0" shadow="0">
      <root>
        <mxCell id="0" />
        <mxCell id="1" parent="0" />
        <mxCell id="j0sXW7riptVhVCH6T9g7-3" value="" style="edgeStyle=orthogonalEdgeStyle;rounded=0;orthogonalLoop=1;jettySize=auto;html=1;fontFamily=Garamond;fontStyle=1" parent="1" source="j0sXW7riptVhVCH6T9g7-1" target="j0sXW7riptVhVCH6T9g7-2" edge="1">
          <mxGeometry relative="1" as="geometry" />
        </mxCell>
        <mxCell id="j0sXW7riptVhVCH6T9g7-1" value="Start" style="strokeWidth=2;html=1;shape=mxgraph.flowchart.terminator;whiteSpace=wrap;fontFamily=Garamond;fontStyle=1" parent="1" vertex="1">
          <mxGeometry x="314" y="50" width="100" height="50" as="geometry" />
        </mxCell>
        <mxCell id="j0sXW7riptVhVCH6T9g7-5" value="" style="edgeStyle=orthogonalEdgeStyle;rounded=0;orthogonalLoop=1;jettySize=auto;html=1;fontFamily=Garamond;fontStyle=1" parent="1" source="j0sXW7riptVhVCH6T9g7-2" target="j0sXW7riptVhVCH6T9g7-4" edge="1">
          <mxGeometry relative="1" as="geometry" />
        </mxCell>
        <mxCell id="j0sXW7riptVhVCH6T9g7-2" value="Input Grade" style="rounded=1;whiteSpace=wrap;html=1;fontFamily=Garamond;strokeWidth=2;fontStyle=1" parent="1" vertex="1">
          <mxGeometry x="304" y="140" width="120" height="45" as="geometry" />
        </mxCell>
        <mxCell id="j0sXW7riptVhVCH6T9g7-6" style="edgeStyle=orthogonalEdgeStyle;rounded=0;orthogonalLoop=1;jettySize=auto;html=1;exitX=1;exitY=0.5;exitDx=0;exitDy=0;fontFamily=Garamond;fontStyle=1" parent="1" source="j0sXW7riptVhVCH6T9g7-4" edge="1">
          <mxGeometry relative="1" as="geometry">
            <mxPoint x="520" y="320" as="targetPoint" />
            <Array as="points">
              <mxPoint x="520" y="288" />
            </Array>
          </mxGeometry>
        </mxCell>
        <mxCell id="j0sXW7riptVhVCH6T9g7-7" style="edgeStyle=orthogonalEdgeStyle;rounded=0;orthogonalLoop=1;jettySize=auto;html=1;exitX=0;exitY=0.5;exitDx=0;exitDy=0;fontFamily=Garamond;fontStyle=1" parent="1" source="j0sXW7riptVhVCH6T9g7-4" target="j0sXW7riptVhVCH6T9g7-8" edge="1">
          <mxGeometry relative="1" as="geometry">
            <mxPoint x="240" y="320" as="targetPoint" />
            <Array as="points">
              <mxPoint x="250" y="288" />
              <mxPoint x="250" y="288" />
            </Array>
          </mxGeometry>
        </mxCell>
        <mxCell id="j0sXW7riptVhVCH6T9g7-4" value="Grade &amp;gt;=75%" style="rhombus;whiteSpace=wrap;html=1;fontFamily=Garamond;rounded=1;strokeWidth=2;fontStyle=1" parent="1" vertex="1">
          <mxGeometry x="306" y="247.5" width="116" height="80" as="geometry" />
        </mxCell>
        <mxCell id="j0sXW7riptVhVCH6T9g7-8" value="Print &quot;Failed&quot;" style="shape=parallelogram;html=1;strokeWidth=2;perimeter=parallelogramPerimeter;whiteSpace=wrap;rounded=1;arcSize=12;size=0.23;fontFamily=Garamond;fontStyle=1" parent="1" vertex="1">
          <mxGeometry x="190" y="320" width="100" height="30" as="geometry" />
        </mxCell>
        <mxCell id="j0sXW7riptVhVCH6T9g7-9" value="Print &quot;Passed" style="shape=parallelogram;html=1;strokeWidth=2;perimeter=parallelogramPerimeter;whiteSpace=wrap;rounded=1;arcSize=12;size=0.23;fontFamily=Garamond;fontStyle=1" parent="1" vertex="1">
          <mxGeometry x="460" y="320" width="100" height="30" as="geometry" />
        </mxCell>
        <mxCell id="j0sXW7riptVhVCH6T9g7-10" value="No" style="text;html=1;align=center;verticalAlign=middle;resizable=0;points=[];autosize=1;strokeColor=none;fillColor=none;fontFamily=Garamond;fontStyle=1" parent="1" vertex="1">
          <mxGeometry x="250" y="260" width="40" height="30" as="geometry" />
        </mxCell>
        <mxCell id="j0sXW7riptVhVCH6T9g7-11" value="Yes" style="text;html=1;align=center;verticalAlign=middle;resizable=0;points=[];autosize=1;strokeColor=none;fillColor=none;fontFamily=Garamond;fontStyle=1" parent="1" vertex="1">
          <mxGeometry x="440" y="255" width="40" height="30" as="geometry" />
        </mxCell>
      </root>
    </mxGraphModel>
  </diagram>
  <diagram id="eW9ZPM0s6Sl8FhcOrisb" name="Page-3">
    <mxGraphModel dx="509" dy="608" grid="1" gridSize="10" guides="1" tooltips="1" connect="1" arrows="1" fold="1" page="1" pageScale="1" pageWidth="827" pageHeight="1169" math="0" shadow="0">
      <root>
        <mxCell id="0" />
        <mxCell id="1" parent="0" />
        <mxCell id="rmrDt5kIy9N0dJzy8chX-3" value="" style="edgeStyle=orthogonalEdgeStyle;rounded=0;orthogonalLoop=1;jettySize=auto;html=1;fontFamily=Garamond;fontStyle=1" parent="1" source="rmrDt5kIy9N0dJzy8chX-1" target="rmrDt5kIy9N0dJzy8chX-2" edge="1">
          <mxGeometry relative="1" as="geometry" />
        </mxCell>
        <mxCell id="rmrDt5kIy9N0dJzy8chX-1" value="Start" style="strokeWidth=2;html=1;shape=mxgraph.flowchart.terminator;whiteSpace=wrap;fontFamily=Garamond;fontStyle=1" parent="1" vertex="1">
          <mxGeometry x="300" y="30" width="100" height="40" as="geometry" />
        </mxCell>
        <mxCell id="rmrDt5kIy9N0dJzy8chX-5" value="" style="edgeStyle=orthogonalEdgeStyle;rounded=0;orthogonalLoop=1;jettySize=auto;html=1;fontFamily=Garamond;fontStyle=1" parent="1" source="rmrDt5kIy9N0dJzy8chX-2" target="rmrDt5kIy9N0dJzy8chX-4" edge="1">
          <mxGeometry relative="1" as="geometry" />
        </mxCell>
        <mxCell id="rmrDt5kIy9N0dJzy8chX-2" value="Enter Color get cc" style="shape=parallelogram;perimeter=parallelogramPerimeter;whiteSpace=wrap;html=1;fixedSize=1;fontFamily=Garamond;strokeWidth=2;fontStyle=1" parent="1" vertex="1">
          <mxGeometry x="290" y="90" width="120" height="20" as="geometry" />
        </mxCell>
        <mxCell id="rmrDt5kIy9N0dJzy8chX-7" value="" style="edgeStyle=orthogonalEdgeStyle;rounded=0;orthogonalLoop=1;jettySize=auto;html=1;fontFamily=Garamond;fontStyle=1" parent="1" source="rmrDt5kIy9N0dJzy8chX-4" target="rmrDt5kIy9N0dJzy8chX-6" edge="1">
          <mxGeometry relative="1" as="geometry" />
        </mxCell>
        <mxCell id="rmrDt5kIy9N0dJzy8chX-4" value="b=&quot;blue&quot;, r=&quot;red&quot;, g=&quot;green&quot;, y=&quot;yellow&quot; and p=&quot;pink&quot;" style="shape=parallelogram;perimeter=parallelogramPerimeter;whiteSpace=wrap;html=1;fixedSize=1;fontFamily=Garamond;strokeWidth=2;fontStyle=1" parent="1" vertex="1">
          <mxGeometry x="275" y="130" width="150" height="50" as="geometry" />
        </mxCell>
        <mxCell id="rmrDt5kIy9N0dJzy8chX-9" value="" style="edgeStyle=orthogonalEdgeStyle;rounded=0;orthogonalLoop=1;jettySize=auto;html=1;fontFamily=Garamond;fontStyle=1" parent="1" source="rmrDt5kIy9N0dJzy8chX-6" target="rmrDt5kIy9N0dJzy8chX-8" edge="1">
          <mxGeometry relative="1" as="geometry" />
        </mxCell>
        <mxCell id="rmrDt5kIy9N0dJzy8chX-18" style="edgeStyle=orthogonalEdgeStyle;rounded=0;orthogonalLoop=1;jettySize=auto;html=1;exitX=1;exitY=0.5;exitDx=0;exitDy=0;fontFamily=Garamond;fontStyle=1" parent="1" source="rmrDt5kIy9N0dJzy8chX-6" edge="1">
          <mxGeometry relative="1" as="geometry">
            <mxPoint x="450" y="223" as="targetPoint" />
          </mxGeometry>
        </mxCell>
        <mxCell id="rmrDt5kIy9N0dJzy8chX-6" value="if cc==&#39;B&quot;" style="rhombus;whiteSpace=wrap;html=1;fontFamily=Garamond;strokeWidth=2;fontStyle=1" parent="1" vertex="1">
          <mxGeometry x="310" y="200" width="80" height="45" as="geometry" />
        </mxCell>
        <mxCell id="rmrDt5kIy9N0dJzy8chX-11" value="" style="edgeStyle=orthogonalEdgeStyle;rounded=0;orthogonalLoop=1;jettySize=auto;html=1;fontFamily=Garamond;fontStyle=1" parent="1" source="rmrDt5kIy9N0dJzy8chX-8" target="rmrDt5kIy9N0dJzy8chX-10" edge="1">
          <mxGeometry relative="1" as="geometry" />
        </mxCell>
        <mxCell id="rmrDt5kIy9N0dJzy8chX-20" style="edgeStyle=orthogonalEdgeStyle;rounded=0;orthogonalLoop=1;jettySize=auto;html=1;exitX=1;exitY=0.5;exitDx=0;exitDy=0;fontFamily=Garamond;fontStyle=1" parent="1" source="rmrDt5kIy9N0dJzy8chX-8" edge="1">
          <mxGeometry relative="1" as="geometry">
            <mxPoint x="440" y="293" as="targetPoint" />
          </mxGeometry>
        </mxCell>
        <mxCell id="rmrDt5kIy9N0dJzy8chX-8" value="if cc==&#39;R&quot;" style="rhombus;whiteSpace=wrap;html=1;fontFamily=Garamond;strokeWidth=2;fontStyle=1" parent="1" vertex="1">
          <mxGeometry x="310" y="270" width="80" height="45" as="geometry" />
        </mxCell>
        <mxCell id="rmrDt5kIy9N0dJzy8chX-13" value="" style="edgeStyle=orthogonalEdgeStyle;rounded=0;orthogonalLoop=1;jettySize=auto;html=1;fontFamily=Garamond;fontStyle=1" parent="1" source="rmrDt5kIy9N0dJzy8chX-10" target="rmrDt5kIy9N0dJzy8chX-12" edge="1">
          <mxGeometry relative="1" as="geometry" />
        </mxCell>
        <mxCell id="rmrDt5kIy9N0dJzy8chX-22" style="edgeStyle=orthogonalEdgeStyle;rounded=0;orthogonalLoop=1;jettySize=auto;html=1;exitX=1;exitY=0.5;exitDx=0;exitDy=0;fontFamily=Garamond;fontStyle=1" parent="1" source="rmrDt5kIy9N0dJzy8chX-10" edge="1">
          <mxGeometry relative="1" as="geometry">
            <mxPoint x="440" y="363" as="targetPoint" />
          </mxGeometry>
        </mxCell>
        <mxCell id="rmrDt5kIy9N0dJzy8chX-10" value="if cc==&#39;G&quot;" style="rhombus;whiteSpace=wrap;html=1;fontFamily=Garamond;strokeWidth=2;fontStyle=1" parent="1" vertex="1">
          <mxGeometry x="310" y="340" width="80" height="45" as="geometry" />
        </mxCell>
        <mxCell id="rmrDt5kIy9N0dJzy8chX-15" value="" style="edgeStyle=orthogonalEdgeStyle;rounded=0;orthogonalLoop=1;jettySize=auto;html=1;fontFamily=Garamond;fontStyle=1" parent="1" source="rmrDt5kIy9N0dJzy8chX-12" target="rmrDt5kIy9N0dJzy8chX-14" edge="1">
          <mxGeometry relative="1" as="geometry" />
        </mxCell>
        <mxCell id="rmrDt5kIy9N0dJzy8chX-25" value="" style="edgeStyle=orthogonalEdgeStyle;rounded=0;orthogonalLoop=1;jettySize=auto;html=1;fontFamily=Garamond;fontStyle=1" parent="1" source="rmrDt5kIy9N0dJzy8chX-12" edge="1">
          <mxGeometry relative="1" as="geometry">
            <mxPoint x="470" y="432.5" as="targetPoint" />
          </mxGeometry>
        </mxCell>
        <mxCell id="rmrDt5kIy9N0dJzy8chX-12" value="if cc==&#39;Y&quot;" style="rhombus;whiteSpace=wrap;html=1;fontFamily=Garamond;strokeWidth=2;fontStyle=1" parent="1" vertex="1">
          <mxGeometry x="310" y="410" width="80" height="45" as="geometry" />
        </mxCell>
        <mxCell id="rmrDt5kIy9N0dJzy8chX-17" value="" style="edgeStyle=orthogonalEdgeStyle;rounded=0;orthogonalLoop=1;jettySize=auto;html=1;fontFamily=Garamond;fontStyle=1" parent="1" source="rmrDt5kIy9N0dJzy8chX-14" target="rmrDt5kIy9N0dJzy8chX-16" edge="1">
          <mxGeometry relative="1" as="geometry" />
        </mxCell>
        <mxCell id="rmrDt5kIy9N0dJzy8chX-27" style="edgeStyle=orthogonalEdgeStyle;rounded=0;orthogonalLoop=1;jettySize=auto;html=1;exitX=1;exitY=0.5;exitDx=0;exitDy=0;fontFamily=Garamond;fontStyle=1" parent="1" source="rmrDt5kIy9N0dJzy8chX-14" edge="1">
          <mxGeometry relative="1" as="geometry">
            <mxPoint x="440" y="503" as="targetPoint" />
          </mxGeometry>
        </mxCell>
        <mxCell id="rmrDt5kIy9N0dJzy8chX-14" value="if cc==&#39;P&quot;" style="rhombus;whiteSpace=wrap;html=1;fontFamily=Garamond;strokeWidth=2;fontStyle=1" parent="1" vertex="1">
          <mxGeometry x="310" y="480" width="80" height="45" as="geometry" />
        </mxCell>
        <mxCell id="rmrDt5kIy9N0dJzy8chX-47" style="edgeStyle=orthogonalEdgeStyle;rounded=0;orthogonalLoop=1;jettySize=auto;html=1;exitX=0.5;exitY=1;exitDx=0;exitDy=0;fontFamily=Garamond;fontStyle=1" parent="1" source="rmrDt5kIy9N0dJzy8chX-16" edge="1">
          <mxGeometry relative="1" as="geometry">
            <mxPoint x="350" y="640" as="targetPoint" />
          </mxGeometry>
        </mxCell>
        <mxCell id="rmrDt5kIy9N0dJzy8chX-16" value="&quot;invalid&quot;" style="rhombus;whiteSpace=wrap;html=1;fontFamily=Garamond;strokeWidth=2;fontStyle=1" parent="1" vertex="1">
          <mxGeometry x="310" y="550" width="80" height="45" as="geometry" />
        </mxCell>
        <mxCell id="rmrDt5kIy9N0dJzy8chX-40" style="edgeStyle=orthogonalEdgeStyle;rounded=0;orthogonalLoop=1;jettySize=auto;html=1;exitX=1;exitY=0.5;exitDx=0;exitDy=0;fontFamily=Garamond;fontStyle=1" parent="1" source="rmrDt5kIy9N0dJzy8chX-19" edge="1">
          <mxGeometry relative="1" as="geometry">
            <mxPoint x="350" y="620" as="targetPoint" />
            <Array as="points">
              <mxPoint x="680" y="223" />
            </Array>
          </mxGeometry>
        </mxCell>
        <mxCell id="rmrDt5kIy9N0dJzy8chX-19" value="Print &quot;Blue&quot;" style="shape=parallelogram;perimeter=parallelogramPerimeter;whiteSpace=wrap;html=1;fixedSize=1;fontFamily=Garamond;strokeWidth=2;fontStyle=1" parent="1" vertex="1">
          <mxGeometry x="440" y="212.5" width="120" height="20" as="geometry" />
        </mxCell>
        <mxCell id="rmrDt5kIy9N0dJzy8chX-41" style="edgeStyle=orthogonalEdgeStyle;rounded=0;orthogonalLoop=1;jettySize=auto;html=1;exitX=1;exitY=0.5;exitDx=0;exitDy=0;fontFamily=Garamond;fontStyle=1" parent="1" source="rmrDt5kIy9N0dJzy8chX-21" edge="1">
          <mxGeometry relative="1" as="geometry">
            <mxPoint x="680" y="293" as="targetPoint" />
          </mxGeometry>
        </mxCell>
        <mxCell id="rmrDt5kIy9N0dJzy8chX-21" value="Print &quot;Red&quot;" style="shape=parallelogram;perimeter=parallelogramPerimeter;whiteSpace=wrap;html=1;fixedSize=1;fontFamily=Garamond;strokeWidth=2;fontStyle=1" parent="1" vertex="1">
          <mxGeometry x="430" y="282.5" width="120" height="20" as="geometry" />
        </mxCell>
        <mxCell id="rmrDt5kIy9N0dJzy8chX-42" style="edgeStyle=orthogonalEdgeStyle;rounded=0;orthogonalLoop=1;jettySize=auto;html=1;exitX=1;exitY=0.5;exitDx=0;exitDy=0;fontFamily=Garamond;fontStyle=1" parent="1" source="rmrDt5kIy9N0dJzy8chX-23" edge="1">
          <mxGeometry relative="1" as="geometry">
            <mxPoint x="680" y="363" as="targetPoint" />
          </mxGeometry>
        </mxCell>
        <mxCell id="rmrDt5kIy9N0dJzy8chX-23" value="Print &quot;Green&quot;" style="shape=parallelogram;perimeter=parallelogramPerimeter;whiteSpace=wrap;html=1;fixedSize=1;fontFamily=Garamond;strokeWidth=2;fontStyle=1" parent="1" vertex="1">
          <mxGeometry x="430" y="352.5" width="120" height="20" as="geometry" />
        </mxCell>
        <mxCell id="rmrDt5kIy9N0dJzy8chX-43" style="edgeStyle=orthogonalEdgeStyle;rounded=0;orthogonalLoop=1;jettySize=auto;html=1;exitX=1;exitY=0.5;exitDx=0;exitDy=0;fontFamily=Garamond;fontStyle=1" parent="1" source="rmrDt5kIy9N0dJzy8chX-26" edge="1">
          <mxGeometry relative="1" as="geometry">
            <mxPoint x="680" y="433" as="targetPoint" />
          </mxGeometry>
        </mxCell>
        <mxCell id="rmrDt5kIy9N0dJzy8chX-26" value="Print &quot;Yellow&quot;" style="shape=parallelogram;perimeter=parallelogramPerimeter;whiteSpace=wrap;html=1;fixedSize=1;fontFamily=Garamond;strokeWidth=2;fontStyle=1" parent="1" vertex="1">
          <mxGeometry x="430" y="422.5" width="120" height="20" as="geometry" />
        </mxCell>
        <mxCell id="rmrDt5kIy9N0dJzy8chX-44" style="edgeStyle=orthogonalEdgeStyle;rounded=0;orthogonalLoop=1;jettySize=auto;html=1;exitX=1;exitY=0.5;exitDx=0;exitDy=0;fontFamily=Garamond;fontStyle=1" parent="1" source="rmrDt5kIy9N0dJzy8chX-28" edge="1">
          <mxGeometry relative="1" as="geometry">
            <mxPoint x="680" y="503" as="targetPoint" />
          </mxGeometry>
        </mxCell>
        <mxCell id="rmrDt5kIy9N0dJzy8chX-28" value="Print &quot;Pink&quot;" style="shape=parallelogram;perimeter=parallelogramPerimeter;whiteSpace=wrap;html=1;fixedSize=1;fontFamily=Garamond;strokeWidth=2;fontStyle=1" parent="1" vertex="1">
          <mxGeometry x="430" y="492.5" width="120" height="20" as="geometry" />
        </mxCell>
        <mxCell id="rmrDt5kIy9N0dJzy8chX-29" value="Yes" style="text;html=1;align=center;verticalAlign=middle;resizable=0;points=[];autosize=1;strokeColor=none;fillColor=none;fontFamily=Garamond;fontStyle=1" parent="1" vertex="1">
          <mxGeometry x="390" y="205" width="40" height="30" as="geometry" />
        </mxCell>
        <mxCell id="rmrDt5kIy9N0dJzy8chX-30" value="Yes" style="text;html=1;align=center;verticalAlign=middle;resizable=0;points=[];autosize=1;strokeColor=none;fillColor=none;fontFamily=Garamond;fontStyle=1" parent="1" vertex="1">
          <mxGeometry x="380" y="265" width="40" height="30" as="geometry" />
        </mxCell>
        <mxCell id="rmrDt5kIy9N0dJzy8chX-31" value="Yes" style="text;html=1;align=center;verticalAlign=middle;resizable=0;points=[];autosize=1;strokeColor=none;fillColor=none;fontFamily=Garamond;fontStyle=1" parent="1" vertex="1">
          <mxGeometry x="380" y="335" width="40" height="30" as="geometry" />
        </mxCell>
        <mxCell id="rmrDt5kIy9N0dJzy8chX-32" value="Yes" style="text;html=1;align=center;verticalAlign=middle;resizable=0;points=[];autosize=1;strokeColor=none;fillColor=none;fontFamily=Garamond;fontStyle=1" parent="1" vertex="1">
          <mxGeometry x="390" y="405" width="40" height="30" as="geometry" />
        </mxCell>
        <mxCell id="rmrDt5kIy9N0dJzy8chX-33" value="Yes" style="text;html=1;align=center;verticalAlign=middle;resizable=0;points=[];autosize=1;strokeColor=none;fillColor=none;fontFamily=Garamond;fontStyle=1" parent="1" vertex="1">
          <mxGeometry x="390" y="485" width="40" height="30" as="geometry" />
        </mxCell>
        <mxCell id="rmrDt5kIy9N0dJzy8chX-35" value="No" style="text;html=1;align=center;verticalAlign=middle;resizable=0;points=[];autosize=1;strokeColor=none;fillColor=none;fontFamily=Garamond;fontStyle=1" parent="1" vertex="1">
          <mxGeometry x="320" y="235" width="40" height="30" as="geometry" />
        </mxCell>
        <mxCell id="rmrDt5kIy9N0dJzy8chX-36" value="No" style="text;html=1;align=center;verticalAlign=middle;resizable=0;points=[];autosize=1;strokeColor=none;fillColor=none;fontFamily=Garamond;fontStyle=1" parent="1" vertex="1">
          <mxGeometry x="320" y="305" width="40" height="30" as="geometry" />
        </mxCell>
        <mxCell id="rmrDt5kIy9N0dJzy8chX-37" value="No" style="text;html=1;align=center;verticalAlign=middle;resizable=0;points=[];autosize=1;strokeColor=none;fillColor=none;fontFamily=Garamond;fontStyle=1" parent="1" vertex="1">
          <mxGeometry x="320" y="375" width="40" height="30" as="geometry" />
        </mxCell>
        <mxCell id="rmrDt5kIy9N0dJzy8chX-38" value="No" style="text;html=1;align=center;verticalAlign=middle;resizable=0;points=[];autosize=1;strokeColor=none;fillColor=none;fontFamily=Garamond;fontStyle=1" parent="1" vertex="1">
          <mxGeometry x="320" y="445" width="40" height="30" as="geometry" />
        </mxCell>
        <mxCell id="rmrDt5kIy9N0dJzy8chX-39" value="No" style="text;html=1;align=center;verticalAlign=middle;resizable=0;points=[];autosize=1;strokeColor=none;fillColor=none;fontFamily=Garamond;fontStyle=1" parent="1" vertex="1">
          <mxGeometry x="320" y="515" width="40" height="30" as="geometry" />
        </mxCell>
        <mxCell id="rmrDt5kIy9N0dJzy8chX-49" value="End" style="strokeWidth=2;html=1;shape=mxgraph.flowchart.terminator;whiteSpace=wrap;fontFamily=Garamond;fontStyle=1" parent="1" vertex="1">
          <mxGeometry x="300" y="640" width="100" height="60" as="geometry" />
        </mxCell>
      </root>
    </mxGraphModel>
  </diagram>
  <diagram id="4QaixViWngm18FbnujxH" name="Page-4">
    <mxGraphModel dx="780" dy="585" grid="1" gridSize="10" guides="1" tooltips="1" connect="1" arrows="1" fold="1" page="1" pageScale="1" pageWidth="827" pageHeight="1169" math="0" shadow="0">
      <root>
        <mxCell id="0" />
        <mxCell id="1" parent="0" />
        <mxCell id="7cQ_i3UWmtvaQM5XyIDQ-3" value="" style="edgeStyle=orthogonalEdgeStyle;rounded=0;orthogonalLoop=1;jettySize=auto;html=1;" parent="1" source="7cQ_i3UWmtvaQM5XyIDQ-1" edge="1">
          <mxGeometry relative="1" as="geometry">
            <mxPoint x="414" y="140" as="targetPoint" />
          </mxGeometry>
        </mxCell>
        <mxCell id="7cQ_i3UWmtvaQM5XyIDQ-1" value="Start" style="strokeWidth=2;html=1;shape=mxgraph.flowchart.terminator;whiteSpace=wrap;" parent="1" vertex="1">
          <mxGeometry x="364" y="80" width="100" height="40" as="geometry" />
        </mxCell>
        <mxCell id="7cQ_i3UWmtvaQM5XyIDQ-7" value="" style="edgeStyle=orthogonalEdgeStyle;rounded=0;orthogonalLoop=1;jettySize=auto;html=1;" parent="1" source="7cQ_i3UWmtvaQM5XyIDQ-5" target="7cQ_i3UWmtvaQM5XyIDQ-6" edge="1">
          <mxGeometry relative="1" as="geometry" />
        </mxCell>
        <mxCell id="7cQ_i3UWmtvaQM5XyIDQ-5" value="num1 = 0;&lt;br&gt;num2 = 0;&lt;br&gt;sum = 0;" style="shape=hexagon;perimeter=hexagonPerimeter2;whiteSpace=wrap;html=1;fixedSize=1;" parent="1" vertex="1">
          <mxGeometry x="354" y="140" width="120" height="60" as="geometry" />
        </mxCell>
        <mxCell id="7cQ_i3UWmtvaQM5XyIDQ-9" value="" style="edgeStyle=orthogonalEdgeStyle;rounded=0;orthogonalLoop=1;jettySize=auto;html=1;" parent="1" source="7cQ_i3UWmtvaQM5XyIDQ-6" target="7cQ_i3UWmtvaQM5XyIDQ-8" edge="1">
          <mxGeometry relative="1" as="geometry" />
        </mxCell>
        <mxCell id="7cQ_i3UWmtvaQM5XyIDQ-6" value="INPUT num1, &lt;br&gt;num2" style="shape=parallelogram;perimeter=parallelogramPerimeter;whiteSpace=wrap;html=1;fixedSize=1;" parent="1" vertex="1">
          <mxGeometry x="354" y="220" width="120" height="60" as="geometry" />
        </mxCell>
        <mxCell id="7cQ_i3UWmtvaQM5XyIDQ-11" value="" style="edgeStyle=orthogonalEdgeStyle;rounded=0;orthogonalLoop=1;jettySize=auto;html=1;" parent="1" source="7cQ_i3UWmtvaQM5XyIDQ-8" target="7cQ_i3UWmtvaQM5XyIDQ-10" edge="1">
          <mxGeometry relative="1" as="geometry" />
        </mxCell>
        <mxCell id="7cQ_i3UWmtvaQM5XyIDQ-8" value="&amp;nbsp;sum = num1 + num 2" style="rounded=0;whiteSpace=wrap;html=1;" parent="1" vertex="1">
          <mxGeometry x="354" y="300" width="120" height="60" as="geometry" />
        </mxCell>
        <mxCell id="7cQ_i3UWmtvaQM5XyIDQ-13" value="" style="edgeStyle=orthogonalEdgeStyle;rounded=0;orthogonalLoop=1;jettySize=auto;html=1;" parent="1" source="7cQ_i3UWmtvaQM5XyIDQ-10" target="7cQ_i3UWmtvaQM5XyIDQ-12" edge="1">
          <mxGeometry relative="1" as="geometry" />
        </mxCell>
        <mxCell id="7cQ_i3UWmtvaQM5XyIDQ-10" value="OUTPUT sum" style="shape=parallelogram;perimeter=parallelogramPerimeter;whiteSpace=wrap;html=1;fixedSize=1;" parent="1" vertex="1">
          <mxGeometry x="354" y="390" width="120" height="60" as="geometry" />
        </mxCell>
        <mxCell id="7cQ_i3UWmtvaQM5XyIDQ-12" value="End" style="strokeWidth=2;html=1;shape=mxgraph.flowchart.terminator;whiteSpace=wrap;" parent="1" vertex="1">
          <mxGeometry x="364" y="480" width="100" height="40" as="geometry" />
        </mxCell>
      </root>
    </mxGraphModel>
  </diagram>
  <diagram id="HeUBAClA5IkDVXZxjNSz" name="Page-5">
    <mxGraphModel dx="780" dy="585" grid="1" gridSize="10" guides="1" tooltips="1" connect="1" arrows="1" fold="1" page="1" pageScale="1" pageWidth="827" pageHeight="1169" math="0" shadow="0">
      <root>
        <mxCell id="0" />
        <mxCell id="1" parent="0" />
        <mxCell id="1K7qQp3emD-mwHH6lIOU-1" value="" style="edgeStyle=orthogonalEdgeStyle;rounded=0;orthogonalLoop=1;jettySize=auto;html=1;" parent="1" source="1K7qQp3emD-mwHH6lIOU-2" edge="1">
          <mxGeometry relative="1" as="geometry">
            <mxPoint x="414" y="140" as="targetPoint" />
          </mxGeometry>
        </mxCell>
        <mxCell id="1K7qQp3emD-mwHH6lIOU-2" value="Start" style="strokeWidth=2;html=1;shape=mxgraph.flowchart.terminator;whiteSpace=wrap;" parent="1" vertex="1">
          <mxGeometry x="364" y="80" width="100" height="40" as="geometry" />
        </mxCell>
        <mxCell id="1K7qQp3emD-mwHH6lIOU-3" value="" style="edgeStyle=orthogonalEdgeStyle;rounded=0;orthogonalLoop=1;jettySize=auto;html=1;" parent="1" source="1K7qQp3emD-mwHH6lIOU-4" target="1K7qQp3emD-mwHH6lIOU-6" edge="1">
          <mxGeometry relative="1" as="geometry" />
        </mxCell>
        <mxCell id="1K7qQp3emD-mwHH6lIOU-4" value="num1 = 0;&lt;br&gt;num2 = 0;&lt;br&gt;ave = 0;" style="shape=hexagon;perimeter=hexagonPerimeter2;whiteSpace=wrap;html=1;fixedSize=1;" parent="1" vertex="1">
          <mxGeometry x="354" y="140" width="120" height="60" as="geometry" />
        </mxCell>
        <mxCell id="1K7qQp3emD-mwHH6lIOU-5" value="" style="edgeStyle=orthogonalEdgeStyle;rounded=0;orthogonalLoop=1;jettySize=auto;html=1;" parent="1" source="1K7qQp3emD-mwHH6lIOU-6" target="1K7qQp3emD-mwHH6lIOU-8" edge="1">
          <mxGeometry relative="1" as="geometry" />
        </mxCell>
        <mxCell id="1K7qQp3emD-mwHH6lIOU-6" value="INPUT num1, &lt;br&gt;num2" style="shape=parallelogram;perimeter=parallelogramPerimeter;whiteSpace=wrap;html=1;fixedSize=1;" parent="1" vertex="1">
          <mxGeometry x="354" y="220" width="120" height="60" as="geometry" />
        </mxCell>
        <mxCell id="1K7qQp3emD-mwHH6lIOU-13" value="" style="edgeStyle=orthogonalEdgeStyle;rounded=0;orthogonalLoop=1;jettySize=auto;html=1;" parent="1" source="1K7qQp3emD-mwHH6lIOU-8" target="1K7qQp3emD-mwHH6lIOU-12" edge="1">
          <mxGeometry relative="1" as="geometry" />
        </mxCell>
        <mxCell id="1K7qQp3emD-mwHH6lIOU-8" value="&amp;nbsp;sum = num1 + num 2" style="rounded=0;whiteSpace=wrap;html=1;" parent="1" vertex="1">
          <mxGeometry x="354" y="300" width="120" height="60" as="geometry" />
        </mxCell>
        <mxCell id="1K7qQp3emD-mwHH6lIOU-9" value="" style="edgeStyle=orthogonalEdgeStyle;rounded=0;orthogonalLoop=1;jettySize=auto;html=1;" parent="1" source="1K7qQp3emD-mwHH6lIOU-10" target="1K7qQp3emD-mwHH6lIOU-11" edge="1">
          <mxGeometry relative="1" as="geometry" />
        </mxCell>
        <mxCell id="1K7qQp3emD-mwHH6lIOU-10" value="OUTPUT ave" style="shape=parallelogram;perimeter=parallelogramPerimeter;whiteSpace=wrap;html=1;fixedSize=1;" parent="1" vertex="1">
          <mxGeometry x="354" y="460" width="120" height="60" as="geometry" />
        </mxCell>
        <mxCell id="1K7qQp3emD-mwHH6lIOU-11" value="End" style="strokeWidth=2;html=1;shape=mxgraph.flowchart.terminator;whiteSpace=wrap;" parent="1" vertex="1">
          <mxGeometry x="364" y="550" width="100" height="40" as="geometry" />
        </mxCell>
        <mxCell id="1K7qQp3emD-mwHH6lIOU-14" value="" style="edgeStyle=orthogonalEdgeStyle;rounded=0;orthogonalLoop=1;jettySize=auto;html=1;" parent="1" source="1K7qQp3emD-mwHH6lIOU-12" target="1K7qQp3emD-mwHH6lIOU-10" edge="1">
          <mxGeometry relative="1" as="geometry" />
        </mxCell>
        <mxCell id="1K7qQp3emD-mwHH6lIOU-12" value="ave = sum / 2" style="rounded=0;whiteSpace=wrap;html=1;" parent="1" vertex="1">
          <mxGeometry x="354" y="380" width="120" height="60" as="geometry" />
        </mxCell>
      </root>
    </mxGraphModel>
  </diagram>
  <diagram id="_WyT5PAwyRslooLc03hi" name="Page-6">
    <mxGraphModel dx="509" dy="608" grid="1" gridSize="10" guides="1" tooltips="1" connect="1" arrows="1" fold="1" page="1" pageScale="1" pageWidth="827" pageHeight="1169" math="0" shadow="0">
      <root>
        <mxCell id="0" />
        <mxCell id="1" parent="0" />
        <mxCell id="J6AXAsFBVuoWRnp-qtnS-1" value="" style="edgeStyle=orthogonalEdgeStyle;rounded=0;orthogonalLoop=1;jettySize=auto;html=1;" parent="1" source="J6AXAsFBVuoWRnp-qtnS-2" edge="1">
          <mxGeometry relative="1" as="geometry">
            <mxPoint x="414" y="140" as="targetPoint" />
          </mxGeometry>
        </mxCell>
        <mxCell id="J6AXAsFBVuoWRnp-qtnS-2" value="Start" style="strokeWidth=2;html=1;shape=mxgraph.flowchart.terminator;whiteSpace=wrap;" parent="1" vertex="1">
          <mxGeometry x="364" y="80" width="100" height="40" as="geometry" />
        </mxCell>
        <mxCell id="J6AXAsFBVuoWRnp-qtnS-3" value="" style="edgeStyle=orthogonalEdgeStyle;rounded=0;orthogonalLoop=1;jettySize=auto;html=1;" parent="1" source="J6AXAsFBVuoWRnp-qtnS-4" target="J6AXAsFBVuoWRnp-qtnS-6" edge="1">
          <mxGeometry relative="1" as="geometry" />
        </mxCell>
        <mxCell id="J6AXAsFBVuoWRnp-qtnS-4" value="num1 = 0;&lt;br&gt;num2 = 0;&lt;br&gt;ave = 0;" style="shape=hexagon;perimeter=hexagonPerimeter2;whiteSpace=wrap;html=1;fixedSize=1;" parent="1" vertex="1">
          <mxGeometry x="354" y="140" width="120" height="60" as="geometry" />
        </mxCell>
        <mxCell id="J6AXAsFBVuoWRnp-qtnS-14" value="" style="edgeStyle=orthogonalEdgeStyle;rounded=0;orthogonalLoop=1;jettySize=auto;html=1;" parent="1" source="J6AXAsFBVuoWRnp-qtnS-6" target="J6AXAsFBVuoWRnp-qtnS-13" edge="1">
          <mxGeometry relative="1" as="geometry" />
        </mxCell>
        <mxCell id="J6AXAsFBVuoWRnp-qtnS-6" value="INPUT num1, &lt;br&gt;num2" style="shape=parallelogram;perimeter=parallelogramPerimeter;whiteSpace=wrap;html=1;fixedSize=1;" parent="1" vertex="1">
          <mxGeometry x="354" y="220" width="120" height="60" as="geometry" />
        </mxCell>
        <mxCell id="J6AXAsFBVuoWRnp-qtnS-7" value="" style="edgeStyle=orthogonalEdgeStyle;rounded=0;orthogonalLoop=1;jettySize=auto;html=1;" parent="1" target="J6AXAsFBVuoWRnp-qtnS-13" edge="1">
          <mxGeometry relative="1" as="geometry">
            <mxPoint x="414" y="360" as="sourcePoint" />
          </mxGeometry>
        </mxCell>
        <mxCell id="J6AXAsFBVuoWRnp-qtnS-9" value="" style="edgeStyle=orthogonalEdgeStyle;rounded=0;orthogonalLoop=1;jettySize=auto;html=1;" parent="1" source="J6AXAsFBVuoWRnp-qtnS-10" target="J6AXAsFBVuoWRnp-qtnS-11" edge="1">
          <mxGeometry relative="1" as="geometry" />
        </mxCell>
        <mxCell id="J6AXAsFBVuoWRnp-qtnS-10" value="OUTPUT ave" style="shape=parallelogram;perimeter=parallelogramPerimeter;whiteSpace=wrap;html=1;fixedSize=1;" parent="1" vertex="1">
          <mxGeometry x="354" y="400" width="120" height="60" as="geometry" />
        </mxCell>
        <mxCell id="J6AXAsFBVuoWRnp-qtnS-11" value="End" style="strokeWidth=2;html=1;shape=mxgraph.flowchart.terminator;whiteSpace=wrap;" parent="1" vertex="1">
          <mxGeometry x="364" y="480" width="100" height="40" as="geometry" />
        </mxCell>
        <mxCell id="J6AXAsFBVuoWRnp-qtnS-12" value="" style="edgeStyle=orthogonalEdgeStyle;rounded=0;orthogonalLoop=1;jettySize=auto;html=1;" parent="1" source="J6AXAsFBVuoWRnp-qtnS-13" target="J6AXAsFBVuoWRnp-qtnS-10" edge="1">
          <mxGeometry relative="1" as="geometry" />
        </mxCell>
        <mxCell id="J6AXAsFBVuoWRnp-qtnS-13" value="ave = (num1 +num2) /2" style="rounded=0;whiteSpace=wrap;html=1;" parent="1" vertex="1">
          <mxGeometry x="354" y="310" width="120" height="60" as="geometry" />
        </mxCell>
      </root>
    </mxGraphModel>
  </diagram>
  <diagram id="bi6vtCt5VVKz7UZ2cJIG" name="Page-7">
    <mxGraphModel dx="509" dy="1777" grid="1" gridSize="10" guides="1" tooltips="1" connect="1" arrows="1" fold="1" page="1" pageScale="1" pageWidth="827" pageHeight="1169" math="0" shadow="0">
      <root>
        <mxCell id="0" />
        <mxCell id="1" parent="0" />
        <mxCell id="YztXdEiLpjbQkKMp_52a-14" style="edgeStyle=orthogonalEdgeStyle;rounded=0;orthogonalLoop=1;jettySize=auto;html=1;exitX=0.5;exitY=1;exitDx=0;exitDy=0;exitPerimeter=0;entryX=0.5;entryY=0;entryDx=0;entryDy=0;" parent="1" source="64feHqV_7lI1zegBF64_-1" target="YztXdEiLpjbQkKMp_52a-13" edge="1">
          <mxGeometry relative="1" as="geometry" />
        </mxCell>
        <mxCell id="64feHqV_7lI1zegBF64_-1" value="Start" style="strokeWidth=2;html=1;shape=mxgraph.flowchart.terminator;whiteSpace=wrap;" parent="1" vertex="1">
          <mxGeometry x="340" width="100" height="40" as="geometry" />
        </mxCell>
        <mxCell id="64feHqV_7lI1zegBF64_-7" value="" style="edgeStyle=orthogonalEdgeStyle;rounded=0;orthogonalLoop=1;jettySize=auto;html=1;" parent="1" source="64feHqV_7lI1zegBF64_-4" target="64feHqV_7lI1zegBF64_-6" edge="1">
          <mxGeometry relative="1" as="geometry" />
        </mxCell>
        <mxCell id="64feHqV_7lI1zegBF64_-4" value="INPUT num" style="shape=parallelogram;perimeter=parallelogramPerimeter;whiteSpace=wrap;html=1;fixedSize=1;strokeWidth=2;" parent="1" vertex="1">
          <mxGeometry x="330" y="170" width="120" height="60" as="geometry" />
        </mxCell>
        <mxCell id="YztXdEiLpjbQkKMp_52a-1" style="edgeStyle=orthogonalEdgeStyle;rounded=0;orthogonalLoop=1;jettySize=auto;html=1;exitX=0;exitY=0.5;exitDx=0;exitDy=0;" parent="1" source="64feHqV_7lI1zegBF64_-6" target="YztXdEiLpjbQkKMp_52a-2" edge="1">
          <mxGeometry relative="1" as="geometry">
            <mxPoint x="280" y="330" as="targetPoint" />
            <Array as="points">
              <mxPoint x="280" y="290" />
              <mxPoint x="280" y="290" />
            </Array>
          </mxGeometry>
        </mxCell>
        <mxCell id="YztXdEiLpjbQkKMp_52a-4" style="edgeStyle=orthogonalEdgeStyle;rounded=0;orthogonalLoop=1;jettySize=auto;html=1;exitX=1;exitY=0.5;exitDx=0;exitDy=0;" parent="1" source="64feHqV_7lI1zegBF64_-6" edge="1">
          <mxGeometry relative="1" as="geometry">
            <mxPoint x="530" y="320" as="targetPoint" />
            <Array as="points">
              <mxPoint x="530" y="290" />
              <mxPoint x="530" y="290" />
            </Array>
          </mxGeometry>
        </mxCell>
        <mxCell id="64feHqV_7lI1zegBF64_-6" value="is num even?" style="rhombus;whiteSpace=wrap;html=1;strokeWidth=2;" parent="1" vertex="1">
          <mxGeometry x="325" y="250" width="130" height="80" as="geometry" />
        </mxCell>
        <mxCell id="YztXdEiLpjbQkKMp_52a-10" style="edgeStyle=orthogonalEdgeStyle;rounded=0;orthogonalLoop=1;jettySize=auto;html=1;entryX=0.5;entryY=0;entryDx=0;entryDy=0;entryPerimeter=0;" parent="1" source="YztXdEiLpjbQkKMp_52a-2" target="YztXdEiLpjbQkKMp_52a-9" edge="1">
          <mxGeometry relative="1" as="geometry">
            <mxPoint x="390" y="480" as="targetPoint" />
            <Array as="points">
              <mxPoint x="280" y="480" />
              <mxPoint x="390" y="480" />
            </Array>
          </mxGeometry>
        </mxCell>
        <mxCell id="YztXdEiLpjbQkKMp_52a-2" value="PRINT &quot;Even&quot;" style="shape=parallelogram;html=1;strokeWidth=2;perimeter=parallelogramPerimeter;whiteSpace=wrap;rounded=1;arcSize=12;size=0.23;" parent="1" vertex="1">
          <mxGeometry x="230" y="330" width="100" height="60" as="geometry" />
        </mxCell>
        <mxCell id="YztXdEiLpjbQkKMp_52a-3" value="Yes" style="text;html=1;align=center;verticalAlign=middle;resizable=0;points=[];autosize=1;strokeColor=none;fillColor=none;" parent="1" vertex="1">
          <mxGeometry x="280" y="265" width="40" height="30" as="geometry" />
        </mxCell>
        <mxCell id="YztXdEiLpjbQkKMp_52a-6" value="No" style="text;html=1;align=center;verticalAlign=middle;resizable=0;points=[];autosize=1;strokeColor=none;fillColor=none;" parent="1" vertex="1">
          <mxGeometry x="450" y="265" width="40" height="30" as="geometry" />
        </mxCell>
        <mxCell id="YztXdEiLpjbQkKMp_52a-18" style="edgeStyle=orthogonalEdgeStyle;rounded=0;orthogonalLoop=1;jettySize=auto;html=1;entryX=0.5;entryY=0;entryDx=0;entryDy=0;entryPerimeter=0;" parent="1" source="YztXdEiLpjbQkKMp_52a-7" target="YztXdEiLpjbQkKMp_52a-9" edge="1">
          <mxGeometry relative="1" as="geometry">
            <mxPoint x="390" y="480" as="targetPoint" />
            <Array as="points">
              <mxPoint x="530" y="480" />
              <mxPoint x="390" y="480" />
            </Array>
          </mxGeometry>
        </mxCell>
        <mxCell id="YztXdEiLpjbQkKMp_52a-7" value="PRINT &quot;Odd&quot;" style="shape=parallelogram;perimeter=parallelogramPerimeter;whiteSpace=wrap;html=1;fixedSize=1;strokeWidth=2;" parent="1" vertex="1">
          <mxGeometry x="470" y="320" width="120" height="60" as="geometry" />
        </mxCell>
        <mxCell id="YztXdEiLpjbQkKMp_52a-9" value="END" style="strokeWidth=2;html=1;shape=mxgraph.flowchart.terminator;whiteSpace=wrap;" parent="1" vertex="1">
          <mxGeometry x="340" y="490" width="100" height="60" as="geometry" />
        </mxCell>
        <mxCell id="YztXdEiLpjbQkKMp_52a-12" style="edgeStyle=orthogonalEdgeStyle;rounded=0;orthogonalLoop=1;jettySize=auto;html=1;exitX=0.5;exitY=1;exitDx=0;exitDy=0;exitPerimeter=0;" parent="1" source="64feHqV_7lI1zegBF64_-1" target="64feHqV_7lI1zegBF64_-1" edge="1">
          <mxGeometry relative="1" as="geometry" />
        </mxCell>
        <mxCell id="YztXdEiLpjbQkKMp_52a-16" style="edgeStyle=orthogonalEdgeStyle;rounded=0;orthogonalLoop=1;jettySize=auto;html=1;exitX=0.5;exitY=1;exitDx=0;exitDy=0;entryX=0.5;entryY=0;entryDx=0;entryDy=0;" parent="1" source="YztXdEiLpjbQkKMp_52a-13" target="64feHqV_7lI1zegBF64_-4" edge="1">
          <mxGeometry relative="1" as="geometry" />
        </mxCell>
        <mxCell id="YztXdEiLpjbQkKMp_52a-13" value="num = 0;" style="shape=hexagon;perimeter=hexagonPerimeter2;whiteSpace=wrap;html=1;fixedSize=1;" parent="1" vertex="1">
          <mxGeometry x="330" y="60" width="120" height="80" as="geometry" />
        </mxCell>
      </root>
    </mxGraphModel>
  </diagram>
  <diagram id="7pAF8vRm4ZovY44I_FZv" name="Page-8">
    <mxGraphModel dx="509" dy="1777" grid="1" gridSize="10" guides="1" tooltips="1" connect="1" arrows="1" fold="1" page="1" pageScale="1" pageWidth="827" pageHeight="1169" math="0" shadow="0">
      <root>
        <mxCell id="0" />
        <mxCell id="1" parent="0" />
        <mxCell id="I6-tJHJcpF-1pZYkro0C-1" style="edgeStyle=orthogonalEdgeStyle;rounded=0;orthogonalLoop=1;jettySize=auto;html=1;exitX=0.5;exitY=1;exitDx=0;exitDy=0;exitPerimeter=0;entryX=0.5;entryY=0;entryDx=0;entryDy=0;" edge="1" parent="1" source="I6-tJHJcpF-1pZYkro0C-2" target="I6-tJHJcpF-1pZYkro0C-17">
          <mxGeometry relative="1" as="geometry" />
        </mxCell>
        <mxCell id="I6-tJHJcpF-1pZYkro0C-2" value="Start" style="strokeWidth=2;html=1;shape=mxgraph.flowchart.terminator;whiteSpace=wrap;" vertex="1" parent="1">
          <mxGeometry x="340" width="100" height="40" as="geometry" />
        </mxCell>
        <mxCell id="I6-tJHJcpF-1pZYkro0C-3" value="" style="edgeStyle=orthogonalEdgeStyle;rounded=0;orthogonalLoop=1;jettySize=auto;html=1;" edge="1" parent="1" source="I6-tJHJcpF-1pZYkro0C-4" target="I6-tJHJcpF-1pZYkro0C-7">
          <mxGeometry relative="1" as="geometry" />
        </mxCell>
        <mxCell id="I6-tJHJcpF-1pZYkro0C-4" value="INPUT num" style="shape=parallelogram;perimeter=parallelogramPerimeter;whiteSpace=wrap;html=1;fixedSize=1;strokeWidth=2;" vertex="1" parent="1">
          <mxGeometry x="330" y="170" width="120" height="60" as="geometry" />
        </mxCell>
        <mxCell id="I6-tJHJcpF-1pZYkro0C-5" style="edgeStyle=orthogonalEdgeStyle;rounded=0;orthogonalLoop=1;jettySize=auto;html=1;exitX=0;exitY=0.5;exitDx=0;exitDy=0;" edge="1" parent="1" source="I6-tJHJcpF-1pZYkro0C-7" target="I6-tJHJcpF-1pZYkro0C-9">
          <mxGeometry relative="1" as="geometry">
            <mxPoint x="280" y="330" as="targetPoint" />
            <Array as="points">
              <mxPoint x="280" y="290" />
              <mxPoint x="280" y="290" />
            </Array>
          </mxGeometry>
        </mxCell>
        <mxCell id="I6-tJHJcpF-1pZYkro0C-6" style="edgeStyle=orthogonalEdgeStyle;rounded=0;orthogonalLoop=1;jettySize=auto;html=1;exitX=1;exitY=0.5;exitDx=0;exitDy=0;" edge="1" parent="1" source="I6-tJHJcpF-1pZYkro0C-7">
          <mxGeometry relative="1" as="geometry">
            <mxPoint x="530" y="320" as="targetPoint" />
            <Array as="points">
              <mxPoint x="530" y="290" />
              <mxPoint x="530" y="290" />
            </Array>
          </mxGeometry>
        </mxCell>
        <mxCell id="I6-tJHJcpF-1pZYkro0C-7" value="if num is postive" style="rhombus;whiteSpace=wrap;html=1;strokeWidth=2;" vertex="1" parent="1">
          <mxGeometry x="325" y="250" width="130" height="80" as="geometry" />
        </mxCell>
        <mxCell id="I6-tJHJcpF-1pZYkro0C-8" style="edgeStyle=orthogonalEdgeStyle;rounded=0;orthogonalLoop=1;jettySize=auto;html=1;entryX=0.5;entryY=0;entryDx=0;entryDy=0;entryPerimeter=0;" edge="1" parent="1" source="I6-tJHJcpF-1pZYkro0C-9" target="I6-tJHJcpF-1pZYkro0C-14">
          <mxGeometry relative="1" as="geometry">
            <mxPoint x="390" y="480" as="targetPoint" />
            <Array as="points">
              <mxPoint x="280" y="480" />
              <mxPoint x="390" y="480" />
            </Array>
          </mxGeometry>
        </mxCell>
        <mxCell id="I6-tJHJcpF-1pZYkro0C-9" value="PRINT &quot;Positive&quot;" style="shape=parallelogram;html=1;strokeWidth=2;perimeter=parallelogramPerimeter;whiteSpace=wrap;rounded=1;arcSize=12;size=0.23;" vertex="1" parent="1">
          <mxGeometry x="210" y="330" width="140" height="60" as="geometry" />
        </mxCell>
        <mxCell id="I6-tJHJcpF-1pZYkro0C-10" value="Yes" style="text;html=1;align=center;verticalAlign=middle;resizable=0;points=[];autosize=1;strokeColor=none;fillColor=none;" vertex="1" parent="1">
          <mxGeometry x="280" y="265" width="40" height="30" as="geometry" />
        </mxCell>
        <mxCell id="I6-tJHJcpF-1pZYkro0C-11" value="No" style="text;html=1;align=center;verticalAlign=middle;resizable=0;points=[];autosize=1;strokeColor=none;fillColor=none;" vertex="1" parent="1">
          <mxGeometry x="450" y="265" width="40" height="30" as="geometry" />
        </mxCell>
        <mxCell id="I6-tJHJcpF-1pZYkro0C-12" style="edgeStyle=orthogonalEdgeStyle;rounded=0;orthogonalLoop=1;jettySize=auto;html=1;entryX=0.5;entryY=0;entryDx=0;entryDy=0;entryPerimeter=0;" edge="1" parent="1" source="I6-tJHJcpF-1pZYkro0C-13" target="I6-tJHJcpF-1pZYkro0C-14">
          <mxGeometry relative="1" as="geometry">
            <mxPoint x="390" y="480" as="targetPoint" />
            <Array as="points">
              <mxPoint x="530" y="480" />
              <mxPoint x="390" y="480" />
            </Array>
          </mxGeometry>
        </mxCell>
        <mxCell id="I6-tJHJcpF-1pZYkro0C-13" value="PRINT &quot;Negative&quot;" style="shape=parallelogram;perimeter=parallelogramPerimeter;whiteSpace=wrap;html=1;fixedSize=1;strokeWidth=2;" vertex="1" parent="1">
          <mxGeometry x="470" y="320" width="120" height="60" as="geometry" />
        </mxCell>
        <mxCell id="I6-tJHJcpF-1pZYkro0C-14" value="END" style="strokeWidth=2;html=1;shape=mxgraph.flowchart.terminator;whiteSpace=wrap;" vertex="1" parent="1">
          <mxGeometry x="340" y="490" width="100" height="60" as="geometry" />
        </mxCell>
        <mxCell id="I6-tJHJcpF-1pZYkro0C-15" style="edgeStyle=orthogonalEdgeStyle;rounded=0;orthogonalLoop=1;jettySize=auto;html=1;exitX=0.5;exitY=1;exitDx=0;exitDy=0;exitPerimeter=0;" edge="1" parent="1" source="I6-tJHJcpF-1pZYkro0C-2" target="I6-tJHJcpF-1pZYkro0C-2">
          <mxGeometry relative="1" as="geometry" />
        </mxCell>
        <mxCell id="I6-tJHJcpF-1pZYkro0C-16" style="edgeStyle=orthogonalEdgeStyle;rounded=0;orthogonalLoop=1;jettySize=auto;html=1;exitX=0.5;exitY=1;exitDx=0;exitDy=0;entryX=0.5;entryY=0;entryDx=0;entryDy=0;" edge="1" parent="1" source="I6-tJHJcpF-1pZYkro0C-17" target="I6-tJHJcpF-1pZYkro0C-4">
          <mxGeometry relative="1" as="geometry" />
        </mxCell>
        <mxCell id="I6-tJHJcpF-1pZYkro0C-17" value="num = 0;" style="shape=hexagon;perimeter=hexagonPerimeter2;whiteSpace=wrap;html=1;fixedSize=1;" vertex="1" parent="1">
          <mxGeometry x="330" y="60" width="120" height="80" as="geometry" />
        </mxCell>
      </root>
    </mxGraphModel>
  </diagram>
</mxfile>
